<svg xmlns="http://www.w3.org/2000/svg" width="820" height="520" viewBox="0 0 820 520">
<rect width="100%" height="100%" fill="#fcfbf8"/>
<text x="410.0" y="28" text-anchor="middle" font-size="20" font-family="Helvetica, Arial, sans-serif">Prompt Signal from the Static Weighting Potential</text>
<line x1="80" y1="450" x2="790" y2="450" stroke="#333" stroke-width="1.5"/>
<line x1="80" y1="50" x2="80" y2="450" stroke="#333" stroke-width="1.5"/>
<line x1="80.00" y1="50" x2="80.00" y2="450" stroke="#ddd" stroke-width="1"/>
<text x="80.00" y="474" text-anchor="middle" font-size="13" font-family="Helvetica, Arial, sans-serif">0</text>
<line x1="222.00" y1="50" x2="222.00" y2="450" stroke="#ddd" stroke-width="1"/>
<text x="222.00" y="474" text-anchor="middle" font-size="13" font-family="Helvetica, Arial, sans-serif">8</text>
<line x1="364.00" y1="50" x2="364.00" y2="450" stroke="#ddd" stroke-width="1"/>
<text x="364.00" y="474" text-anchor="middle" font-size="13" font-family="Helvetica, Arial, sans-serif">16</text>
<line x1="506.00" y1="50" x2="506.00" y2="450" stroke="#ddd" stroke-width="1"/>
<text x="506.00" y="474" text-anchor="middle" font-size="13" font-family="Helvetica, Arial, sans-serif">24</text>
<line x1="648.00" y1="50" x2="648.00" y2="450" stroke="#ddd" stroke-width="1"/>
<text x="648.00" y="474" text-anchor="middle" font-size="13" font-family="Helvetica, Arial, sans-serif">32</text>
<line x1="790.00" y1="50" x2="790.00" y2="450" stroke="#ddd" stroke-width="1"/>
<text x="790.00" y="474" text-anchor="middle" font-size="13" font-family="Helvetica, Arial, sans-serif">40</text>
<line x1="80" y1="450.00" x2="790" y2="450.00" stroke="#ddd" stroke-width="1"/>
<text x="70" y="455.00" text-anchor="end" font-size="13" font-family="Helvetica, Arial, sans-serif">-7.48e-06</text>
<line x1="80" y1="370.00" x2="790" y2="370.00" stroke="#ddd" stroke-width="1"/>
<text x="70" y="375.00" text-anchor="end" font-size="13" font-family="Helvetica, Arial, sans-serif">-5.91e-06</text>
<line x1="80" y1="290.00" x2="790" y2="290.00" stroke="#ddd" stroke-width="1"/>
<text x="70" y="295.00" text-anchor="end" font-size="13" font-family="Helvetica, Arial, sans-serif">-4.34e-06</text>
<line x1="80" y1="210.00" x2="790" y2="210.00" stroke="#ddd" stroke-width="1"/>
<text x="70" y="215.00" text-anchor="end" font-size="13" font-family="Helvetica, Arial, sans-serif">-2.78e-06</text>
<line x1="80" y1="130.00" x2="790" y2="130.00" stroke="#ddd" stroke-width="1"/>
<text x="70" y="135.00" text-anchor="end" font-size="13" font-family="Helvetica, Arial, sans-serif">-1.21e-06</text>
<line x1="80" y1="50.00" x2="790" y2="50.00" stroke="#ddd" stroke-width="1"/>
<text x="70" y="55.00" text-anchor="end" font-size="13" font-family="Helvetica, Arial, sans-serif">3.56e-07</text>
<path d="M 80.00 431.82 L 81.78 431.82 L 83.56 431.82 L 85.34 431.82 L 87.12 431.82 L 88.90 431.82 L 90.68 431.82 L 92.46 431.82 L 94.24 431.82 L 96.02 431.82 L 97.79 431.82 L 99.57 431.82 L 101.35 431.82 L 103.13 431.82 L 104.91 431.82 L 106.69 431.82 L 108.47 431.82 L 110.25 431.82 L 112.03 431.82 L 113.81 431.82 L 115.59 431.82 L 117.37 431.82 L 119.15 431.82 L 120.93 431.82 L 122.71 431.82 L 124.49 431.82 L 126.27 431.82 L 128.05 431.82 L 129.82 431.82 L 131.60 431.82 L 133.38 431.82 L 135.16 431.82 L 136.94 431.82 L 138.72 431.82 L 140.50 431.82 L 142.28 431.82 L 144.06 431.82 L 145.84 431.82 L 147.62 431.82 L 149.40 431.82 L 151.18 431.82 L 152.96 431.82 L 154.74 431.82 L 156.52 431.82 L 158.30 431.82 L 160.08 431.82 L 161.85 431.82 L 163.63 431.82 L 165.41 431.82 L 167.19 431.82 L 168.97 431.82 L 170.75 431.82 L 172.53 431.82 L 174.31 431.82 L 176.09 431.82 L 177.87 431.82 L 179.65 431.82 L 181.43 431.82 L 183.21 431.82 L 184.99 431.82 L 186.77 431.82 L 188.55 431.82 L 190.33 431.82 L 192.11 431.82 L 193.88 431.82 L 195.66 431.82 L 197.44 431.82 L 199.22 431.82 L 201.00 431.82 L 202.78 431.82 L 204.56 431.82 L 206.34 431.82 L 208.12 431.82 L 209.90 431.82 L 211.68 431.82 L 213.46 431.82 L 215.24 431.82 L 217.02 431.82 L 218.80 431.82 L 220.58 431.82 L 222.36 431.82 L 224.14 431.82 L 225.91 431.82 L 227.69 431.82 L 229.47 431.82 L 231.25 431.82 L 233.03 431.82 L 234.81 431.82 L 236.59 431.82 L 238.37 431.82 L 240.15 431.82 L 241.93 431.82 L 243.71 431.82 L 245.49 431.82 L 247.27 431.82 L 249.05 431.82 L 250.83 431.82 L 252.61 431.82 L 254.39 431.82 L 256.17 431.82 L 257.94 431.82 L 259.72 431.82 L 261.50 431.82 L 263.28 431.82 L 265.06 431.82 L 266.84 431.82 L 268.62 431.82 L 270.40 431.82 L 272.18 431.82 L 273.96 431.82 L 275.74 431.82 L 277.52 431.82 L 279.30 431.82 L 281.08 431.82 L 282.86 431.82 L 284.64 431.82 L 286.42 431.82 L 288.20 431.82 L 289.97 431.82 L 291.75 431.82 L 293.53 431.82 L 295.31 431.82 L 297.09 431.82 L 298.87 431.82 L 300.65 431.82 L 302.43 431.82 L 304.21 431.82 L 305.99 431.82 L 307.77 431.82 L 309.55 431.82 L 311.33 431.82 L 313.11 431.82 L 314.89 431.82 L 316.67 431.82 L 318.45 431.82 L 320.23 431.82 L 322.01 431.82 L 323.78 431.82 L 325.56 431.82 L 327.34 431.82 L 329.12 431.82 L 330.90 431.82 L 332.68 431.82 L 334.46 431.82 L 336.24 431.82 L 338.02 431.82 L 339.80 431.82 L 341.58 431.82 L 343.36 431.82 L 345.14 431.82 L 346.92 431.82 L 348.70 431.82 L 350.48 431.82 L 352.26 431.82 L 354.04 431.82 L 355.81 431.82 L 357.59 431.82 L 359.37 431.82 L 361.15 431.82 L 362.93 431.82 L 364.71 431.82 L 366.49 431.82 L 368.27 431.82 L 370.05 431.82 L 371.83 431.82 L 373.61 431.82 L 375.39 431.82 L 377.17 431.82 L 378.95 431.82 L 380.73 431.82 L 382.51 431.82 L 384.29 431.82 L 386.07 431.82 L 387.84 431.82 L 389.62 431.82 L 391.40 431.82 L 393.18 431.82 L 394.96 431.82 L 396.74 431.82 L 398.52 431.82 L 400.30 431.82 L 402.08 431.82 L 403.86 431.82 L 405.64 431.82 L 407.42 431.82 L 409.20 431.82 L 410.98 431.82 L 412.76 431.82 L 414.54 431.82 L 416.32 431.82 L 418.10 68.18 L 419.87 68.18 L 421.65 68.18 L 423.43 68.18 L 425.21 68.18 L 426.99 68.18 L 428.77 68.18 L 430.55 68.18 L 432.33 68.18 L 434.11 68.18 L 435.89 68.18 L 437.67 68.18 L 439.45 68.18 L 441.23 68.18 L 443.01 68.18 L 444.79 68.18 L 446.57 68.18 L 448.35 68.18 L 450.13 68.18 L 451.90 68.18 L 453.68 68.18 L 455.46 68.18 L 457.24 68.18 L 459.02 68.18 L 460.80 68.18 L 462.58 68.18 L 464.36 68.18 L 466.14 68.18 L 467.92 68.18 L 469.70 68.18 L 471.48 68.18 L 473.26 68.18 L 475.04 68.18 L 476.82 68.18 L 478.60 68.18 L 480.38 68.18 L 482.16 68.18 L 483.93 68.18 L 485.71 68.18 L 487.49 68.18 L 489.27 68.18 L 491.05 68.18 L 492.83 68.18 L 494.61 68.18 L 496.39 68.18 L 498.17 68.18 L 499.95 68.18 L 501.73 68.18 L 503.51 68.18 L 505.29 68.18 L 507.07 68.18 L 508.85 68.18 L 510.63 68.18 L 512.41 68.18 L 514.19 68.18 L 515.96 68.18 L 517.74 68.18 L 519.52 68.18 L 521.30 68.18 L 523.08 68.18 L 524.86 68.18 L 526.64 68.18 L 528.42 68.18 L 530.20 68.18 L 531.98 68.18 L 533.76 68.18 L 535.54 68.18 L 537.32 68.18 L 539.10 68.18 L 540.88 68.18 L 542.66 68.18 L 544.44 68.18 L 546.22 68.18 L 547.99 68.18 L 549.77 68.18 L 551.55 68.18 L 553.33 68.18 L 555.11 68.18 L 556.89 68.18 L 558.67 68.18 L 560.45 68.18 L 562.23 68.18 L 564.01 68.18 L 565.79 68.18 L 567.57 68.18 L 569.35 68.18 L 571.13 68.18 L 572.91 68.18 L 574.69 68.18 L 576.47 68.18 L 578.25 68.18 L 580.03 68.18 L 581.80 68.18 L 583.58 68.18 L 585.36 68.18 L 587.14 68.18 L 588.92 68.18 L 590.70 68.18 L 592.48 68.18 L 594.26 68.18 L 596.04 68.18 L 597.82 68.18 L 599.60 68.18 L 601.38 68.18 L 603.16 68.18 L 604.94 68.18 L 606.72 68.18 L 608.50 68.18 L 610.28 68.18 L 612.06 68.18 L 613.83 68.18 L 615.61 68.18 L 617.39 68.18 L 619.17 68.18 L 620.95 68.18 L 622.73 68.18 L 624.51 68.18 L 626.29 68.18 L 628.07 68.18 L 629.85 68.18 L 631.63 68.18 L 633.41 68.18 L 635.19 68.18 L 636.97 68.18 L 638.75 68.18 L 640.53 68.18 L 642.31 68.18 L 644.09 68.18 L 645.86 68.18 L 647.64 68.18 L 649.42 68.18 L 651.20 68.18 L 652.98 68.18 L 654.76 68.18 L 656.54 68.18 L 658.32 68.18 L 660.10 68.18 L 661.88 68.18 L 663.66 68.18 L 665.44 68.18 L 667.22 68.18 L 669.00 68.18 L 670.78 68.18 L 672.56 68.18 L 674.34 68.18 L 676.12 68.18 L 677.89 68.18 L 679.67 68.18 L 681.45 68.18 L 683.23 68.18 L 685.01 68.18 L 686.79 68.18 L 688.57 68.18 L 690.35 68.18 L 692.13 68.18 L 693.91 68.18 L 695.69 68.18 L 697.47 68.18 L 699.25 68.18 L 701.03 68.18 L 702.81 68.18 L 704.59 68.18 L 706.37 68.18 L 708.15 68.18 L 709.92 68.18 L 711.70 68.18 L 713.48 68.18 L 715.26 68.18 L 717.04 68.18 L 718.82 68.18 L 720.60 68.18 L 722.38 68.18 L 724.16 68.18 L 725.94 68.18 L 727.72 68.18 L 729.50 68.18 L 731.28 68.18 L 733.06 68.18 L 734.84 68.18 L 736.62 68.18 L 738.40 68.18 L 740.18 68.18 L 741.95 68.18 L 743.73 68.18 L 745.51 68.18 L 747.29 68.18 L 749.07 68.18 L 750.85 68.18 L 752.63 68.18 L 754.41 68.18 L 756.19 68.18 L 757.97 68.18 L 759.75 68.18 L 761.53 68.18 L 763.31 68.18 L 765.09 68.18 L 766.87 68.18 L 768.65 68.18 L 770.43 68.18 L 772.21 68.18 L 773.98 68.18 L 775.76 68.18 L 777.54 68.18 L 779.32 68.18 L 781.10 68.18 L 782.88 68.18 L 784.66 68.18 L 786.44 68.18 L 788.22 68.18 L 790.00 68.18" fill="none" stroke="#0f766e" stroke-width="2.5"/>
<text x="435.0" y="500" text-anchor="middle" font-size="15" font-family="Helvetica, Arial, sans-serif">time [ns]</text>
<text x="22" y="250.0" text-anchor="middle" font-size="15" font-family="Helvetica, Arial, sans-serif" transform="rotate(-90 22 250.0)">signal [fC / ns]</text>
</svg>